<svg xmlns="http://www.w3.org/2000/svg" xmlns:xlink="http://www.w3.org/1999/xlink"
     width="200" height="200" version="1.1" viewBox="0 0 24 24">
  <g  fill="#6cc0e1" >
    <path d="M16.6,5.2c-0.5-0.5-1,0-1,0l0.5-0.5l-1,1h1.7C16.7,5.4,16.6,5.3,16.6,5.2z M15.1,16.8c-0.7,0.7-5,3.1-7.9,4.6l9.3-2.7c0,0,2.9-0.5,2.4-2.4c0,0-0.5-2.4-1-4.9c-0.4-2-0.8-4.7-1.2-5.8l-1.7,0c0,0,1.4,5.8,1.9,7.8C17.5,15.4,16.1,15.9,15.1,16.8
                z M4,22.2c0,0,11.1-6.3,11.6-6.8c0.5-0.5,0.5-1,0.5-1.9c0-1-2.9-11.2-3.4-12.1c-0.5-1-1.9,0-1.9,0S1.6,7.1,0.6,8.1
                c-1,1-0.5,1.9-0.5,1.9S2.5,20.7,3,21.7c0.2,0.4,0.4,0.5,0.5,0.6c0,0,0,0,0,0c0,0,0,0,0,0C3.8,22.3,4,22.2,4,22.2z M11.5,7.6
                c0.7,0,1.2,0.5,1.2,1.2c0,0.7-0.5,1.2-1.2,1.2c-0.7,0-1.2-0.5-1.2-1.2C10.3,8.2,10.8,7.6,11.5,7.6z M3.9,22.6
                c-0.1-0.1-0.2-0.2-0.3-0.3C3.6,22.4,3.7,22.5,3.9,22.6z M23.3,9.5c-0.5-1-1-0.5-1.4,0c-0.3,0.3-0.8,0.6-1.1,0.8
                c-0.1-0.9-0.3-1.6-0.4-2.2c-0.4-2.6-1.5-2.4-1.5-2.4l-1.1,0c0.6,2.6,1.8,9.5,2.1,11.1c0.5,2.4-3.4,2.9-3.4,2.9L6.2,22
                c-0.6,0.3-1.1,0.6-1.2,0.7c-0.5,0.2-0.8,0.1-1,0c0.5,0.3,1.2,0.5,1.5,0.5c0.5,0,12-1.6,13.5-1.9c1.9-0.5,2.9-1.5,2.9-2.4
                c0-0.5-0.2-2.2-0.5-4.2c0.9-0.6,2-1.7,2.4-2.1C24.3,12,23.8,10.5,23.3,9.5z M22.1,12c-0.4,0-0.7-0.3-0.7-0.7c0-0.4,0.3-0.7,0.7-0.7
                s0.7,0.3,0.7,0.7C22.8,11.6,22.5,12,22.1,12z"></path>
  </g>
</svg>
